<mxfile host="app.diagrams.net" modified="2020-09-23T01:42:55.102Z" agent="5.0 (Windows NT 10.0; Win64; x64) AppleWebKit/537.36 (KHTML, like Gecko) Chrome/73.0.3683.103 Safari/537.36" etag="_8KRsklpw9T3NTr_L4fA" version="13.7.4" type="github">
  <diagram id="Wlso93UAbQdTBEzmVuxh" name="第 1 页">
    <mxGraphModel dx="1038" dy="580" grid="0" gridSize="10" guides="1" tooltips="1" connect="1" arrows="1" fold="1" page="1" pageScale="1" pageWidth="827" pageHeight="1169" math="0" shadow="0">
      <root>
        <mxCell id="0" />
        <mxCell id="1" parent="0" />
        <mxCell id="saFXNfNB3Pq0g2MhYeRT-1" value="" style="ellipse;whiteSpace=wrap;html=1;aspect=fixed;strokeColor=#82b366;fillColor=#00FF00;" vertex="1" parent="1">
          <mxGeometry x="530" y="410" width="40" height="40" as="geometry" />
        </mxCell>
        <mxCell id="saFXNfNB3Pq0g2MhYeRT-2" value="" style="ellipse;whiteSpace=wrap;html=1;aspect=fixed;strokeColor=#b85450;fillColor=#00FF00;" vertex="1" parent="1">
          <mxGeometry x="480" y="320" width="40" height="40" as="geometry" />
        </mxCell>
        <mxCell id="saFXNfNB3Pq0g2MhYeRT-3" value="" style="ellipse;whiteSpace=wrap;html=1;aspect=fixed;strokeColor=#b85450;fillColor=#FF0000;" vertex="1" parent="1">
          <mxGeometry x="380" y="460" width="40" height="40" as="geometry" />
        </mxCell>
        <mxCell id="saFXNfNB3Pq0g2MhYeRT-4" value="" style="ellipse;whiteSpace=wrap;html=1;aspect=fixed;strokeColor=#b85450;fillColor=#00FF00;" vertex="1" parent="1">
          <mxGeometry x="510" y="580" width="40" height="40" as="geometry" />
        </mxCell>
        <mxCell id="saFXNfNB3Pq0g2MhYeRT-5" value="" style="ellipse;whiteSpace=wrap;html=1;aspect=fixed;strokeColor=#82b366;fillColor=#00FF00;" vertex="1" parent="1">
          <mxGeometry x="240" y="540" width="40" height="40" as="geometry" />
        </mxCell>
        <mxCell id="saFXNfNB3Pq0g2MhYeRT-6" value="" style="ellipse;whiteSpace=wrap;html=1;aspect=fixed;strokeColor=#82b366;fillColor=#00FF00;" vertex="1" parent="1">
          <mxGeometry x="270" y="330" width="40" height="40" as="geometry" />
        </mxCell>
        <mxCell id="saFXNfNB3Pq0g2MhYeRT-7" value="" style="ellipse;whiteSpace=wrap;html=1;aspect=fixed;strokeColor=#82b366;fillColor=#00FF00;" vertex="1" parent="1">
          <mxGeometry x="450" y="530" width="40" height="40" as="geometry" />
        </mxCell>
        <mxCell id="saFXNfNB3Pq0g2MhYeRT-8" value="" style="endArrow=none;html=1;exitX=0.5;exitY=0;exitDx=0;exitDy=0;" edge="1" parent="1" source="saFXNfNB3Pq0g2MhYeRT-3">
          <mxGeometry width="50" height="50" relative="1" as="geometry">
            <mxPoint x="389" y="450" as="sourcePoint" />
            <mxPoint x="400" y="280" as="targetPoint" />
          </mxGeometry>
        </mxCell>
        <mxCell id="saFXNfNB3Pq0g2MhYeRT-9" value="" style="endArrow=none;html=1;exitX=1;exitY=0.5;exitDx=0;exitDy=0;" edge="1" parent="1" source="saFXNfNB3Pq0g2MhYeRT-3">
          <mxGeometry width="50" height="50" relative="1" as="geometry">
            <mxPoint x="390" y="520" as="sourcePoint" />
            <mxPoint x="600" y="480" as="targetPoint" />
            <Array as="points" />
          </mxGeometry>
        </mxCell>
        <mxCell id="saFXNfNB3Pq0g2MhYeRT-12" value="" style="endArrow=none;html=1;entryX=0;entryY=1;entryDx=0;entryDy=0;" edge="1" parent="1" target="saFXNfNB3Pq0g2MhYeRT-3">
          <mxGeometry width="50" height="50" relative="1" as="geometry">
            <mxPoint x="350" y="550" as="sourcePoint" />
            <mxPoint x="380" y="500" as="targetPoint" />
            <Array as="points" />
          </mxGeometry>
        </mxCell>
        <mxCell id="saFXNfNB3Pq0g2MhYeRT-14" value="" style="endArrow=none;dashed=1;html=1;curved=1;" edge="1" parent="1">
          <mxGeometry width="50" height="50" relative="1" as="geometry">
            <mxPoint x="400" y="280" as="sourcePoint" />
            <mxPoint x="600" y="480" as="targetPoint" />
            <Array as="points">
              <mxPoint x="600" y="290" />
            </Array>
          </mxGeometry>
        </mxCell>
        <mxCell id="saFXNfNB3Pq0g2MhYeRT-16" value="" style="endArrow=none;html=1;entryX=0;entryY=0.5;entryDx=0;entryDy=0;" edge="1" parent="1" target="saFXNfNB3Pq0g2MhYeRT-3">
          <mxGeometry width="50" height="50" relative="1" as="geometry">
            <mxPoint x="200" y="480" as="sourcePoint" />
            <mxPoint x="440" y="470" as="targetPoint" />
            <Array as="points" />
          </mxGeometry>
        </mxCell>
        <mxCell id="saFXNfNB3Pq0g2MhYeRT-17" value="" style="endArrow=none;dashed=1;html=1;curved=1;" edge="1" parent="1">
          <mxGeometry width="50" height="50" relative="1" as="geometry">
            <mxPoint x="200" y="480" as="sourcePoint" />
            <mxPoint x="400" y="280" as="targetPoint" />
            <Array as="points">
              <mxPoint x="210" y="290" />
            </Array>
          </mxGeometry>
        </mxCell>
        <mxCell id="saFXNfNB3Pq0g2MhYeRT-18" value="" style="endArrow=none;html=1;exitX=0.5;exitY=1;exitDx=0;exitDy=0;" edge="1" parent="1" source="saFXNfNB3Pq0g2MhYeRT-3">
          <mxGeometry width="50" height="50" relative="1" as="geometry">
            <mxPoint x="390" y="520" as="sourcePoint" />
            <mxPoint x="400" y="680" as="targetPoint" />
          </mxGeometry>
        </mxCell>
        <mxCell id="saFXNfNB3Pq0g2MhYeRT-19" value="" style="endArrow=none;dashed=1;html=1;curved=1;" edge="1" parent="1">
          <mxGeometry width="50" height="50" relative="1" as="geometry">
            <mxPoint x="400" y="680" as="sourcePoint" />
            <mxPoint x="600" y="485" as="targetPoint" />
            <Array as="points">
              <mxPoint x="600" y="660" />
            </Array>
          </mxGeometry>
        </mxCell>
        <mxCell id="saFXNfNB3Pq0g2MhYeRT-20" value="" style="endArrow=none;dashed=1;html=1;curved=1;" edge="1" parent="1">
          <mxGeometry width="50" height="50" relative="1" as="geometry">
            <mxPoint x="400" y="680" as="sourcePoint" />
            <mxPoint x="200" y="480" as="targetPoint" />
            <Array as="points">
              <mxPoint x="210" y="660" />
            </Array>
          </mxGeometry>
        </mxCell>
        <mxCell id="saFXNfNB3Pq0g2MhYeRT-21" value="" style="endArrow=none;dashed=1;html=1;curved=1;" edge="1" parent="1">
          <mxGeometry width="50" height="50" relative="1" as="geometry">
            <mxPoint x="200" y="480" as="sourcePoint" />
            <mxPoint x="600" y="480" as="targetPoint" />
            <Array as="points">
              <mxPoint x="400" y="340" />
            </Array>
          </mxGeometry>
        </mxCell>
        <mxCell id="saFXNfNB3Pq0g2MhYeRT-22" value="" style="endArrow=none;dashed=1;html=1;curved=1;" edge="1" parent="1">
          <mxGeometry width="50" height="50" relative="1" as="geometry">
            <mxPoint x="200" y="480" as="sourcePoint" />
            <mxPoint x="600" y="480" as="targetPoint" />
            <Array as="points">
              <mxPoint x="400" y="630" />
            </Array>
          </mxGeometry>
        </mxCell>
        <mxCell id="saFXNfNB3Pq0g2MhYeRT-27" value="" style="endArrow=none;dashed=1;html=1;curved=1;" edge="1" parent="1">
          <mxGeometry width="50" height="50" relative="1" as="geometry">
            <mxPoint x="350" y="550" as="sourcePoint" />
            <mxPoint x="400" y="280" as="targetPoint" />
            <Array as="points">
              <mxPoint x="330" y="360" />
            </Array>
          </mxGeometry>
        </mxCell>
        <mxCell id="saFXNfNB3Pq0g2MhYeRT-28" value="" style="endArrow=none;dashed=1;html=1;curved=1;" edge="1" parent="1">
          <mxGeometry width="50" height="50" relative="1" as="geometry">
            <mxPoint x="350" y="550" as="sourcePoint" />
            <mxPoint x="400" y="680" as="targetPoint" />
            <Array as="points">
              <mxPoint x="370" y="640" />
            </Array>
          </mxGeometry>
        </mxCell>
        <mxCell id="saFXNfNB3Pq0g2MhYeRT-29" value="" style="endArrow=none;dashed=1;html=1;curved=1;" edge="1" parent="1">
          <mxGeometry width="50" height="50" relative="1" as="geometry">
            <mxPoint x="400" y="680" as="sourcePoint" />
            <mxPoint x="400" y="280" as="targetPoint" />
            <Array as="points">
              <mxPoint x="530" y="480" />
            </Array>
          </mxGeometry>
        </mxCell>
        <mxCell id="saFXNfNB3Pq0g2MhYeRT-30" value="" style="ellipse;whiteSpace=wrap;html=1;aspect=fixed;strokeColor=#82b366;fillColor=#00FF00;" vertex="1" parent="1">
          <mxGeometry x="688" y="258" width="40" height="40" as="geometry" />
        </mxCell>
        <mxCell id="saFXNfNB3Pq0g2MhYeRT-31" value="" style="ellipse;whiteSpace=wrap;html=1;aspect=fixed;strokeColor=#b85450;fillColor=#FF0000;" vertex="1" parent="1">
          <mxGeometry x="691" y="348" width="40" height="40" as="geometry" />
        </mxCell>
        <mxCell id="saFXNfNB3Pq0g2MhYeRT-32" value="vehicle" style="text;html=1;resizable=0;autosize=1;align=center;verticalAlign=middle;points=[];fillColor=none;strokeColor=none;rounded=0;" vertex="1" parent="1">
          <mxGeometry x="687" y="302" width="48" height="18" as="geometry" />
        </mxCell>
        <mxCell id="saFXNfNB3Pq0g2MhYeRT-33" value="energy globle" style="text;html=1;resizable=0;autosize=1;align=center;verticalAlign=middle;points=[];fillColor=none;strokeColor=none;rounded=0;" vertex="1" parent="1">
          <mxGeometry x="670" y="397" width="82" height="18" as="geometry" />
        </mxCell>
      </root>
    </mxGraphModel>
  </diagram>
</mxfile>
